<?xml version="1.0" encoding="UTF-8"?>
<svg id="Capa_1" xmlns="http://www.w3.org/2000/svg" version="1.1" xmlns:xlink="http://www.w3.org/1999/xlink" viewBox="0 0 331.96 309.22">
  <!-- Generator: Adobe Illustrator 29.8.2, SVG Export Plug-In . SVG Version: 2.1.1 Build 3)  -->
  <defs>
    <style>
      .st0 {
        fill: url(#Degradado_sin_nombre_21623);
      }

      .st1 {
        fill: url(#Degradado_sin_nombre_2165);
      }

      .st2 {
        fill: url(#Degradado_sin_nombre_21614);
      }

      .st3 {
        fill: url(#Degradado_sin_nombre_21633);
      }

      .st4 {
        fill: url(#Degradado_sin_nombre_2164);
      }

      .st5 {
        fill: url(#Degradado_sin_nombre_2169);
      }

      .st6 {
        fill: url(#Degradado_sin_nombre_21634);
      }

      .st7 {
        fill: url(#Degradado_sin_nombre_21616);
      }

      .st8 {
        fill: url(#Degradado_sin_nombre_2166);
      }

      .st9 {
        fill: url(#Degradado_sin_nombre_21631);
      }

      .st10 {
        fill: url(#Degradado_sin_nombre_2163);
      }

      .st11 {
        fill: #00b1ce;
      }

      .st12 {
        fill: url(#Degradado_sin_nombre_21625);
      }

      .st13 {
        fill: url(#Degradado_sin_nombre_21622);
      }

      .st14 {
        fill: #007bd6;
      }

      .st15 {
        fill: url(#Degradado_sin_nombre_21628);
      }

      .st16 {
        fill: url(#Degradado_sin_nombre_216);
      }

      .st17 {
        fill: url(#Degradado_sin_nombre_21635);
      }

      .st18 {
        fill: url(#Degradado_sin_nombre_2168);
      }

      .st19 {
        fill: url(#Degradado_sin_nombre_21621);
      }

      .st20 {
        fill: url(#Degradado_sin_nombre_21638);
      }

      .st21 {
        fill: url(#Degradado_sin_nombre_21636);
      }

      .st22 {
        fill: url(#Degradado_sin_nombre_21619);
      }

      .st23 {
        fill: url(#Degradado_sin_nombre_21617);
      }

      .st24 {
        fill: url(#Degradado_sin_nombre_21632);
      }

      .st25 {
        fill: url(#Degradado_sin_nombre_2161);
      }

      .st26 {
        fill: url(#Degradado_sin_nombre_21615);
      }

      .st27 {
        fill: url(#Degradado_sin_nombre_21637);
      }

      .st28 {
        fill: url(#Degradado_sin_nombre_21620);
      }

      .st29 {
        fill: url(#Degradado_sin_nombre_21612);
      }

      .st30 {
        fill: url(#Degradado_sin_nombre_21613);
      }

      .st31 {
        fill: url(#Degradado_sin_nombre_21627);
      }

      .st32 {
        fill: url(#Degradado_sin_nombre_2167);
      }

      .st33 {
        fill: url(#Degradado_sin_nombre_21611);
      }

      .st34 {
        fill: url(#Degradado_sin_nombre_21626);
      }

      .st35 {
        fill: url(#Degradado_sin_nombre_21630);
      }

      .st36 {
        fill: url(#Degradado_sin_nombre_200);
      }

      .st37 {
        fill: url(#Degradado_sin_nombre_21624);
      }

      .st38 {
        fill: url(#Degradado_sin_nombre_21610);
      }

      .st39 {
        fill: url(#Degradado_sin_nombre_2162);
      }

      .st40 {
        fill: url(#Degradado_sin_nombre_21629);
      }

      .st41 {
        fill: url(#Degradado_sin_nombre_21618);
      }
    </style>
    <linearGradient id="Degradado_sin_nombre_216" data-name="Degradado sin nombre 216" x1="-75.07" y1="300.85" x2="383.1" y2="157.35" gradientUnits="userSpaceOnUse">
      <stop offset="0" stop-color="#007bd6"/>
      <stop offset="1" stop-color="#00b1ce"/>
    </linearGradient>
    <linearGradient id="Degradado_sin_nombre_2161" data-name="Degradado sin nombre 216" x1="-72.69" y1="308.45" x2="385.48" y2="164.96" xlink:href="#Degradado_sin_nombre_216"/>
    <linearGradient id="Degradado_sin_nombre_2162" data-name="Degradado sin nombre 216" x1="-70.31" y1="316.06" x2="387.86" y2="172.57" xlink:href="#Degradado_sin_nombre_216"/>
    <linearGradient id="Degradado_sin_nombre_2163" data-name="Degradado sin nombre 216" x1="-66.63" y1="327.8" x2="391.54" y2="184.31" xlink:href="#Degradado_sin_nombre_216"/>
    <linearGradient id="Degradado_sin_nombre_2164" data-name="Degradado sin nombre 216" x1="-63.61" y1="337.46" x2="394.56" y2="193.97" xlink:href="#Degradado_sin_nombre_216"/>
    <linearGradient id="Degradado_sin_nombre_2165" data-name="Degradado sin nombre 216" x1="-61.73" y1="343.46" x2="396.44" y2="199.97" xlink:href="#Degradado_sin_nombre_216"/>
    <linearGradient id="Degradado_sin_nombre_2166" data-name="Degradado sin nombre 216" x1="-58.74" y1="352.99" x2="399.43" y2="209.49" xlink:href="#Degradado_sin_nombre_216"/>
    <linearGradient id="Degradado_sin_nombre_2167" data-name="Degradado sin nombre 216" x1="-55.59" y1="363.04" x2="402.57" y2="219.55" xlink:href="#Degradado_sin_nombre_216"/>
    <linearGradient id="Degradado_sin_nombre_2168" data-name="Degradado sin nombre 216" x1="-53.77" y1="368.87" x2="404.4" y2="225.38" xlink:href="#Degradado_sin_nombre_216"/>
    <linearGradient id="Degradado_sin_nombre_2169" data-name="Degradado sin nombre 216" x1="-50.45" y1="379.47" x2="407.72" y2="235.98" xlink:href="#Degradado_sin_nombre_216"/>
    <linearGradient id="Degradado_sin_nombre_21610" data-name="Degradado sin nombre 216" x1="39.25" y1="115.25" x2="250.77" y2="57.83" gradientTransform="translate(-12.17 -37.03) rotate(4.78)" xlink:href="#Degradado_sin_nombre_216"/>
    <linearGradient id="Degradado_sin_nombre_21611" data-name="Degradado sin nombre 216" x1="60.24" y1="192.56" x2="271.76" y2="135.14" gradientTransform="translate(-12.17 -37.03) rotate(4.78)" xlink:href="#Degradado_sin_nombre_216"/>
    <linearGradient id="Degradado_sin_nombre_21612" data-name="Degradado sin nombre 216" x1="68.45" y1="222.81" x2="279.97" y2="165.39" gradientTransform="translate(-12.17 -37.03) rotate(4.78)" xlink:href="#Degradado_sin_nombre_216"/>
    <linearGradient id="Degradado_sin_nombre_21613" data-name="Degradado sin nombre 216" x1="65.68" y1="212.6" x2="277.2" y2="155.18" gradientTransform="translate(-12.17 -37.03) rotate(4.78)" xlink:href="#Degradado_sin_nombre_216"/>
    <linearGradient id="Degradado_sin_nombre_21614" data-name="Degradado sin nombre 216" x1="61.94" y1="198.82" x2="273.46" y2="141.4" gradientTransform="translate(-12.17 -37.03) rotate(4.78)" xlink:href="#Degradado_sin_nombre_216"/>
    <linearGradient id="Degradado_sin_nombre_21615" data-name="Degradado sin nombre 216" x1="45.81" y1="139.41" x2="257.33" y2="81.99" gradientTransform="translate(-12.17 -37.03) rotate(4.78)" xlink:href="#Degradado_sin_nombre_216"/>
    <linearGradient id="Degradado_sin_nombre_21616" data-name="Degradado sin nombre 216" x1="61.15" y1="195.92" x2="272.67" y2="138.5" gradientTransform="translate(-12.17 -37.03) rotate(4.78)" xlink:href="#Degradado_sin_nombre_216"/>
    <linearGradient id="Degradado_sin_nombre_21617" data-name="Degradado sin nombre 216" x1="51.21" y1="159.29" x2="262.73" y2="101.87" gradientTransform="translate(-12.17 -37.03) rotate(4.78)" xlink:href="#Degradado_sin_nombre_216"/>
    <linearGradient id="Degradado_sin_nombre_21618" data-name="Degradado sin nombre 216" x1="67.98" y1="221.07" x2="279.5" y2="163.65" gradientTransform="translate(-12.17 -37.03) rotate(4.78)" xlink:href="#Degradado_sin_nombre_216"/>
    <linearGradient id="Degradado_sin_nombre_21619" data-name="Degradado sin nombre 216" x1="46.61" y1="142.35" x2="258.13" y2="84.93" gradientTransform="translate(-12.17 -37.03) rotate(4.78)" xlink:href="#Degradado_sin_nombre_216"/>
    <linearGradient id="Degradado_sin_nombre_21620" data-name="Degradado sin nombre 216" x1="48.14" y1="148.01" x2="259.67" y2="90.59" gradientTransform="translate(-12.17 -37.03) rotate(4.78)" xlink:href="#Degradado_sin_nombre_216"/>
    <linearGradient id="Degradado_sin_nombre_21621" data-name="Degradado sin nombre 216" x1="39.35" y1="115.62" x2="250.87" y2="58.2" gradientTransform="translate(-12.17 -37.03) rotate(4.78)" xlink:href="#Degradado_sin_nombre_216"/>
    <linearGradient id="Degradado_sin_nombre_21622" data-name="Degradado sin nombre 216" x1="38.53" y1="112.6" x2="250.05" y2="55.17" gradientTransform="translate(-12.17 -37.03) rotate(4.78)" xlink:href="#Degradado_sin_nombre_216"/>
    <linearGradient id="Degradado_sin_nombre_21623" data-name="Degradado sin nombre 216" x1="76.16" y1="251.22" x2="287.69" y2="193.8" gradientTransform="translate(-12.17 -37.03) rotate(4.78)" xlink:href="#Degradado_sin_nombre_216"/>
    <linearGradient id="Degradado_sin_nombre_21624" data-name="Degradado sin nombre 216" x1="67.21" y1="218.25" x2="278.73" y2="160.83" gradientTransform="translate(-12.17 -37.03) rotate(4.78)" xlink:href="#Degradado_sin_nombre_216"/>
    <linearGradient id="Degradado_sin_nombre_21625" data-name="Degradado sin nombre 216" x1="71.26" y1="233.19" x2="282.79" y2="175.76" gradientTransform="translate(-12.17 -37.03) rotate(4.78)" xlink:href="#Degradado_sin_nombre_216"/>
    <linearGradient id="Degradado_sin_nombre_21626" data-name="Degradado sin nombre 216" x1="77.99" y1="257.95" x2="289.51" y2="200.53" gradientTransform="translate(-12.17 -37.03) rotate(4.78)" xlink:href="#Degradado_sin_nombre_216"/>
    <linearGradient id="Degradado_sin_nombre_21627" data-name="Degradado sin nombre 216" x1="76.73" y1="253.31" x2="288.25" y2="195.89" gradientTransform="translate(-12.17 -37.03) rotate(4.78)" xlink:href="#Degradado_sin_nombre_216"/>
    <linearGradient id="Degradado_sin_nombre_21628" data-name="Degradado sin nombre 216" x1="75.31" y1="248.1" x2="286.84" y2="190.68" gradientTransform="translate(-12.17 -37.03) rotate(4.78)" xlink:href="#Degradado_sin_nombre_216"/>
    <linearGradient id="Degradado_sin_nombre_21629" data-name="Degradado sin nombre 216" x1="78.84" y1="261.11" x2="290.37" y2="203.69" gradientTransform="translate(-12.17 -37.03) rotate(4.78)" xlink:href="#Degradado_sin_nombre_216"/>
    <linearGradient id="Degradado_sin_nombre_21630" data-name="Degradado sin nombre 216" x1="34.44" y1="97.53" x2="245.96" y2="40.11" gradientTransform="translate(-12.17 -37.03) rotate(4.78)" xlink:href="#Degradado_sin_nombre_216"/>
    <linearGradient id="Degradado_sin_nombre_21631" data-name="Degradado sin nombre 216" x1="35.99" y1="103.25" x2="247.52" y2="45.83" gradientTransform="translate(-12.17 -37.03) rotate(4.78)" xlink:href="#Degradado_sin_nombre_216"/>
    <linearGradient id="Degradado_sin_nombre_21632" data-name="Degradado sin nombre 216" x1="33.88" y1="95.46" x2="245.4" y2="38.04" gradientTransform="translate(-12.17 -37.03) rotate(4.78)" xlink:href="#Degradado_sin_nombre_216"/>
    <linearGradient id="Degradado_sin_nombre_21633" data-name="Degradado sin nombre 216" x1="47.11" y1="144.19" x2="258.63" y2="86.77" gradientTransform="translate(-12.17 -37.03) rotate(4.78)" xlink:href="#Degradado_sin_nombre_216"/>
    <linearGradient id="Degradado_sin_nombre_21634" data-name="Degradado sin nombre 216" x1="41.54" y1="123.69" x2="253.06" y2="66.27" gradientTransform="translate(-12.17 -37.03) rotate(4.78)" xlink:href="#Degradado_sin_nombre_216"/>
    <linearGradient id="Degradado_sin_nombre_21635" data-name="Degradado sin nombre 216" x1="34.25" y1="96.84" x2="245.78" y2="39.42" gradientTransform="translate(-12.17 -37.03) rotate(4.78)" xlink:href="#Degradado_sin_nombre_216"/>
    <linearGradient id="Degradado_sin_nombre_21636" data-name="Degradado sin nombre 216" x1="70.1" y1="228.88" x2="281.62" y2="171.46" gradientTransform="translate(-12.17 -37.03) rotate(4.78)" xlink:href="#Degradado_sin_nombre_216"/>
    <linearGradient id="Degradado_sin_nombre_21637" data-name="Degradado sin nombre 216" x1="74.2" y1="243.99" x2="285.72" y2="186.57" gradientTransform="translate(-12.17 -37.03) rotate(4.78)" xlink:href="#Degradado_sin_nombre_216"/>
    <linearGradient id="Degradado_sin_nombre_21638" data-name="Degradado sin nombre 216" x1="41.25" y1="122.62" x2="252.77" y2="65.2" gradientTransform="translate(-12.17 -37.03) rotate(4.78)" xlink:href="#Degradado_sin_nombre_216"/>
    <linearGradient id="Degradado_sin_nombre_200" data-name="Degradado sin nombre 200" x1="87.86" y1="163.24" x2="311.37" y2="163.24" gradientTransform="translate(-12.17 -37.03) rotate(4.78)" gradientUnits="userSpaceOnUse">
      <stop offset="0" stop-color="#f89132"/>
      <stop offset="1" stop-color="#ffcf56"/>
    </linearGradient>
  </defs>
  <path class="st11" d="M250.51,71.81v40.25c0,1.26,1.02,2.28,2.28,2.28h55.82c1.26,0,2.28-1.02,2.28-2.28v-40.25c0-1.26-1.02-2.28-2.28-2.28h-55.82c-1.26,0-2.28,1.02-2.28,2.28ZM257.39,108.66c0,.61-.49,1.1-1.1,1.1s-1.1-.49-1.1-1.1v-33.44c0-.61.49-1.1,1.1-1.1s1.1.49,1.1,1.1v33.44ZM262.81,108.66c0,.61-.49,1.1-1.1,1.1s-1.1-.49-1.1-1.1v-33.44c0-.61.49-1.1,1.1-1.1s1.1.49,1.1,1.1v33.44ZM268.23,108.66c0,.61-.49,1.1-1.1,1.1s-1.1-.49-1.1-1.1v-33.44c0-.61.49-1.1,1.1-1.1s1.1.49,1.1,1.1v33.44ZM273.66,108.66c0,.61-.49,1.1-1.1,1.1s-1.1-.49-1.1-1.1v-33.44c0-.61.49-1.1,1.1-1.1s1.1.49,1.1,1.1v33.44ZM279.08,108.66c0,.61-.49,1.1-1.1,1.1s-1.1-.49-1.1-1.1v-33.44c0-.61.49-1.1,1.1-1.1s1.1.49,1.1,1.1v33.44ZM284.51,108.66c0,.61-.49,1.1-1.1,1.1s-1.1-.49-1.1-1.1v-33.44c0-.61.49-1.1,1.1-1.1s1.1.49,1.1,1.1v33.44ZM289.93,108.66c0,.61-.49,1.1-1.1,1.1s-1.1-.49-1.1-1.1v-33.44c0-.61.49-1.1,1.1-1.1s1.1.49,1.1,1.1v33.44ZM295.36,108.66c0,.61-.49,1.1-1.1,1.1s-1.1-.49-1.1-1.1v-33.44c0-.61.49-1.1,1.1-1.1s1.1.49,1.1,1.1v33.44ZM300.78,108.66c0,.61-.49,1.1-1.1,1.1s-1.1-.49-1.1-1.1v-33.44c0-.61.49-1.1,1.1-1.1s1.1.49,1.1,1.1v33.44ZM306.21,108.66c0,.61-.49,1.1-1.1,1.1s-1.1-.49-1.1-1.1v-33.44c0-.61.49-1.1,1.1-1.1s1.1.49,1.1,1.1v33.44Z"/>
  <g>
    <path class="st16" d="M21.07,284.23v-29.1h6.74v29.1h-6.74Z"/>
    <path class="st25" d="M34.71,284.23v-29.1h5.57l12.39,20.54h-2.95l12.18-20.54h5.53l.08,29.1h-6.32l-.04-19.41h1.16l-9.73,16.34h-3.03l-9.94-16.34h1.41v19.41h-6.32Z"/>
    <path class="st39" d="M74.41,284.23v-29.1h12.6c2.6,0,4.85.42,6.73,1.27,1.88.85,3.34,2.06,4.36,3.64,1.03,1.58,1.54,3.47,1.54,5.65s-.51,4.03-1.54,5.61c-1.03,1.58-2.48,2.79-4.36,3.64-1.89.85-4.13,1.27-6.73,1.27h-8.86l2.99-3.04v11.06h-6.74ZM81.14,273.92l-2.99-3.2h8.48c2.08,0,3.63-.44,4.66-1.33,1.03-.89,1.54-2.12,1.54-3.7s-.51-2.85-1.54-3.74c-1.03-.89-2.58-1.33-4.66-1.33h-8.48l2.99-3.2v16.5Z"/>
    <path class="st10" d="M118.97,284.73c-2.3,0-4.43-.37-6.38-1.12s-3.64-1.8-5.07-3.16c-1.43-1.36-2.54-2.95-3.33-4.78-.79-1.83-1.19-3.82-1.19-5.99s.4-4.16,1.19-5.99c.79-1.83,1.91-3.42,3.35-4.78,1.44-1.36,3.13-2.41,5.07-3.16,1.94-.75,4.05-1.12,6.32-1.12s4.41.37,6.34,1.12c1.93.75,3.6,1.8,5.03,3.16,1.43,1.36,2.54,2.95,3.35,4.76.8,1.82,1.21,3.82,1.21,6.01s-.4,4.16-1.21,6.01c-.8,1.84-1.92,3.44-3.35,4.78-1.43,1.34-3.1,2.39-5.03,3.14-1.93.75-4.03,1.12-6.3,1.12ZM118.93,278.99c1.3,0,2.5-.22,3.6-.67,1.09-.44,2.06-1.08,2.89-1.91.83-.83,1.48-1.82,1.93-2.95.46-1.14.69-2.4.69-3.78s-.23-2.65-.69-3.78c-.46-1.14-1.1-2.12-1.91-2.95-.82-.83-1.78-1.47-2.89-1.91-1.11-.44-2.31-.67-3.62-.67s-2.5.22-3.6.67c-1.1.44-2.06,1.08-2.89,1.91-.83.83-1.48,1.82-1.93,2.95-.46,1.14-.69,2.4-.69,3.78s.23,2.61.69,3.76c.46,1.15,1.09,2.14,1.91,2.97.82.83,1.78,1.47,2.89,1.91,1.11.44,2.31.67,3.62.67Z"/>
    <path class="st4" d="M139.92,284.23v-29.1h12.43c4.05,0,7.19.93,9.44,2.81,2.25,1.87,3.37,4.45,3.37,7.75,0,2.16-.51,4.03-1.54,5.59-1.03,1.57-2.48,2.76-4.36,3.6-1.89.83-4.13,1.25-6.73,1.25h-8.86l2.99-2.95v11.06h-6.74ZM146.66,273.92l-2.99-3.16h8.48c2.08,0,3.63-.45,4.66-1.35,1.03-.9,1.54-2.14,1.54-3.72s-.51-2.85-1.54-3.74c-1.03-.89-2.58-1.33-4.66-1.33h-8.48l2.99-3.2v16.5ZM158.42,284.23l-7.27-10.56h7.19l7.36,10.56h-7.28Z"/>
    <path class="st1" d="M177.42,284.23v-26.44h-10.23v-2.66h23.53v2.66h-10.23v26.44h-3.08Z"/>
    <path class="st8" d="M195.63,284.23v-29.1h10.89c3.69,0,6.59.88,8.71,2.64,2.12,1.76,3.18,4.21,3.18,7.34,0,2.05-.48,3.82-1.43,5.3-.96,1.48-2.32,2.62-4.09,3.41-1.77.79-3.89,1.19-6.36,1.19h-9.19l1.37-1.41v10.64h-3.08ZM198.71,273.84l-1.37-1.45h9.1c2.91,0,5.12-.64,6.63-1.91,1.51-1.27,2.27-3.06,2.27-5.36s-.76-4.13-2.27-5.4c-1.51-1.27-3.72-1.91-6.63-1.91h-9.1l1.37-1.45v17.5ZM215.5,284.23l-7.48-10.56h3.33l7.52,10.56h-3.37Z"/>
    <path class="st32" d="M221.03,284.23l13.3-29.1h3.03l13.3,29.1h-3.24l-12.22-27.31h1.25l-12.22,27.31h-3.2ZM226.27,276.46l.91-2.49h16.92l.92,2.49h-18.75Z"/>
    <path class="st18" d="M255.49,284.23v-29.1h11.85c3.1,0,5.83.62,8.17,1.85,2.34,1.23,4.16,2.94,5.47,5.13,1.3,2.19,1.95,4.71,1.95,7.57s-.65,5.38-1.95,7.57-3.13,3.9-5.47,5.13c-2.34,1.23-5.07,1.85-8.17,1.85h-11.85ZM258.57,281.57h8.6c2.58,0,4.82-.51,6.71-1.52,1.9-1.01,3.37-2.41,4.43-4.2,1.05-1.79,1.58-3.85,1.58-6.17s-.53-4.42-1.58-6.19c-1.05-1.77-2.53-3.17-4.43-4.18-1.9-1.01-4.14-1.52-6.71-1.52h-8.6v23.78Z"/>
    <path class="st5" d="M289.83,284.23v-29.1h19.96v2.66h-16.88v23.78h17.5v2.66h-20.58ZM292.58,270.76v-2.62h15.38v2.62h-15.38Z"/>
  </g>
  <g>
    <g>
      <path class="st38" d="M152.31,45.56c4.08,4.51,7.83,9.33,11.34,14.27,8.58-.74,17.17-.85,25.66-.3.89.06,1.79.14,2.68.21-4.52-5.31-9.54-10.23-14.91-14.73-8.27-.15-16.54.02-24.77.55Z"/>
      <path class="st33" d="M216.56,136.01c-.09-6.65-.48-13.3-1.18-19.91-7.55,1.87-15.85,4.2-24.49,7.08,1.17,5.14,2.15,10.33,2.94,15.54,7.49-1.47,15.11-2.4,22.73-2.7Z"/>
      <path class="st29" d="M191.08,170.08c-.6-7.93-1.47-15.83-2.65-23.7-7.75,2.2-15.37,4.85-22.79,7.97-7.51,3.13-14.74,6.76-21.72,10.8,3.61,6.98,7.55,13.78,11.78,20.42,11.01-6.79,22.99-12.09,35.37-15.5Z"/>
      <path class="st30" d="M135.74,162.91c-1.73-3.3-3.36-6.66-4.89-10.07-1.69,1.24-3.36,2.51-5,3.82-4.27,3.42-7.93,6.61-11.09,9.58,1.83,2.84,3.72,5.66,5.65,8.43,4.88-4.21,9.99-8.15,15.33-11.76Z"/>
      <path class="st2" d="M168.26,145.98c6.18-2.32,12.6-4.3,19.17-5.87-.83-4.84-1.77-9.66-2.87-14.46-.02-.09-.04-.18-.07-.27-16.11,5.77-33,13.46-48.15,23.6,1.49,3.53,3.07,7.02,4.73,10.46,8.62-5.35,17.72-9.89,27.18-13.46Z"/>
      <path class="st26" d="M167.64,65.89c4.72,7.51,8.81,15.39,12.31,23.52,9.43-2.07,18.76-3.68,27.8-4.8-3.05-6.95-6.94-13.48-11.5-19.55-9.55-.33-19.1-.07-28.61.83Z"/>
      <path class="st7" d="M245.66,110.02c-5,.75-12.56,2.04-21.75,4.07,0,.08.02.15.02.21.29,1.93.47,4.69.57,6.66.22,3.9.49,9.49.33,13.35,0,.54-.04,1.08-.05,1.62,7.22.16,14.39.93,21.39,2.37.22-1.59.39-3.19.53-4.81.67-8.03.28-15.89-1.04-23.47Z"/>
      <path class="st23" d="M86.61,126.26c-.12-.58-.25-1.16-.37-1.74-2.13-11.42-1.95-23.17.15-34.64-6.65,3.35-13.14,7.01-19.45,10.96-1.57,5.58-2.64,11.38-3.15,17.37-.73,8.71-.21,17.24,1.4,25.42,6.02-6.42,13.54-12.25,21.42-17.36Z"/>
      <path class="st41" d="M230.91,166.09c2.16.2,4.31.47,6.45.8,4.26-8.51,7.24-17.81,8.68-27.66-7.13-.25-14.28-.07-21.39.53-.42,8.69-1.47,17.42-3.23,26,3.17-.03,6.34.07,9.49.33Z"/>
      <path class="st22" d="M162.36,66.46c-6.47.78-12.92,1.85-19.34,3.26-7.62,1.67-15.16,3.71-22.58,6.12.25,10.46,1.39,20.9,3.31,31.19,1.09-.46,2.14-.88,3.12-1.28,15.18-6.12,31.11-11.15,46.87-14.92-3.29-8.36-7.06-16.53-11.38-24.37Z"/>
      <path class="st28" d="M94.34,121.51c8.2-4.77,16.39-8.76,23.33-11.85-1.79-10.65-2.56-21.43-2.15-32.15-7.31,2.55-14.5,5.46-21.54,8.7-1.79,11.79-1.83,23.74.36,35.3Z"/>
      <path class="st19" d="M103.07,54.16c-3.45,8.29-6.17,16.96-7.97,25.78,6.72-3.55,13.69-6.67,20.83-9.34.6-6.93,1.71-13.82,3.35-20.6-5.46,1.15-10.87,2.53-16.21,4.16Z"/>
      <path class="st13" d="M121.74,49.49c-.81,6.47-1.25,12.99-1.33,19.51,12.46-4.28,25.39-7.22,38.41-8.7-3.01-5-6.27-9.84-9.78-14.51-9.18.71-18.3,1.91-27.3,3.7Z"/>
      <path class="st0" d="M206.97,201.66c3.21-10.04,5.6-20.32,7.19-30.73-6.03,1.1-11.97,2.54-17.81,4.28-.09,11.39-.98,22.78-2.68,34,4.65-2.15,9.1-4.68,13.3-7.55Z"/>
      <path class="st37" d="M216.58,140.62c-7.38.94-14.71,2.32-21.93,4.11.45,3.65.82,7.3,1.08,10.96.31,4.34.5,8.7.58,13.07,6.13-1.41,12.33-2.35,18.54-2.77,1.08-8.41,1.66-16.89,1.72-25.38Z"/>
      <path class="st12" d="M151.66,188.16c-1.63-2.2-3.23-4.42-4.77-6.69-2.92-4.25-5.66-8.65-8.23-13.18-5.27,3.26-10.39,6.73-15.38,10.41,4.84,6.64,10.01,13.02,15.59,19.05,4.06-3.43,8.33-6.64,12.79-9.6Z"/>
      <path class="st34" d="M160.5,217.48c5.21-.29,10.31-1.02,15.27-2.16-7.34-6.9-14.18-14.37-20.43-22.33-4.51,2.57-8.94,5.29-13.27,8.15,1.08,1.11,2.17,2.21,3.27,3.29,4.77,4.63,9.77,9.11,15.16,13.05Z"/>
      <path class="st31" d="M191.53,176.72c-11.19,3.69-21.99,8.5-32.37,14.15,5.55,8.31,11.53,16.35,17.79,24.18,5.26-1.28,10.36-3.01,15.24-5.17.15-11.08-.02-22.14-.67-33.16Z"/>
      <path class="st15" d="M220.51,169.91c-2.39,10.23-5.84,20.19-10.47,29.56,10.97-8.17,20.1-18.76,26.54-31.06-5.39.29-10.73.75-16.07,1.5Z"/>
      <path class="st40" d="M148.1,211.7c-3.53-2.42-6.93-5-10.2-7.74-4.11,2.83-8.13,5.79-12.08,8.84,6.9,2.33,14.19,3.87,21.77,4.51,3.44.29,6.85.37,10.22.28-3.35-1.78-6.59-3.81-9.72-5.89Z"/>
      <path class="st35" d="M146.02,39.17c7.78-.61,15.62-.65,23.37-.16-2.22-1.61-4.47-3.15-6.76-4.63-7.26-.59-14.38-.31-21.28.74,1.6,1.3,3.16,2.65,4.67,4.05Z"/>
      <path class="st9" d="M176.32,39.59c5.66.59,11.24,1.46,16.68,2.59-7.96-3.59-16.55-6.09-25.59-7.3,3.04,1.42,6.02,2.99,8.91,4.7Z"/>
      <path class="st24" d="M122.71,42.8c6.93-1.65,14.04-2.78,21.21-3.43-1.16-1.38-2.34-2.74-3.54-4.09-5.9.96-11.63,2.5-17.12,4.54-.18.99-.38,1.98-.54,2.98Z"/>
      <path class="st3" d="M226.44,67.94c-6.91-1.07-13.84-1.87-20.77-2.38,4.26,5.61,7.88,11.69,10.74,18.13,6.88-.62,13.53-.92,19.88-.91-2.8-5.26-6.11-10.23-9.85-14.84Z"/>
      <path class="st6" d="M184.9,45.24c6.23,4.56,11.95,9.81,16.98,15.64,7.73,1.12,15.36,2.77,22.8,4.96-6.72-7.78-14.74-14.43-23.76-19.61-5.33-.43-10.67-.78-16.02-.99Z"/>
      <path class="st17" d="M121.12,43.18c.29-.97.6-1.94.91-2.9-4.93,1.92-9.67,4.25-14.16,6.97,4.31-1.57,8.74-2.93,13.25-4.06Z"/>
      <path class="st21" d="M108.93,172.07c-11.04,11.87-12.92,19.41-12.79,23.36,0,.25.04.47.06.69.69.58,1.4,1.15,2.11,1.72,5-6.39,10.49-12.42,16.4-18.02-1.99-2.53-3.91-5.12-5.78-7.75Z"/>
      <path class="st27" d="M134.85,201.32c-6.28-5.56-12.07-11.66-17.42-18.14-6.22,4.88-12.22,10.08-18.06,15.48,7.44,5.72,15.8,10.33,24.86,13.58,3.3-3.81,6.85-7.46,10.62-10.92Z"/>
      <path class="st20" d="M87.6,84.15c2.41-10.02,6.28-19.72,11.34-28.68-1.46.48-2.9.99-4.35,1.51-12.27,10.8-21.68,24.88-26.81,41.01,6.23-5.08,12.86-9.7,19.82-13.84Z"/>
    </g>
    <path class="st14" d="M97.87,213.62l-1.9.18c-.35.03-3.55.32-8.1-.06-1.04-.09-2.07-.21-3.08-.35,38.89,32.97,98.42,35.46,139.08-1.66-38.38,29-89.75,28.15-125.99,1.89Z"/>
    <path class="st14" d="M100.82,38.14c-45.15,25.58-64.5,79.85-48.35,127.59.4-1.96.99-3.89,1.74-5.78-6.09-21.49-4.76-45.08,4.06-65.57-7.24,18.84-8.46,39.76-3.4,59.24.26,1.01.54,2.01.83,3.01.66-1.32,1.39-2.62,2.2-3.9-8.74-39.35,6.38-81.64,40.47-106.2,21.94-16.11,50.12-22.85,77.07-19.32-25-5.99-52.3-1.89-74.61,10.95Z"/>
    <g>
      <path class="st11" d="M236.9,67.74l7.97,2.35c-12.96-18.62-32.13-32.82-54.81-38.56,19.01,7.14,35.28,20.03,46.84,36.21Z"/>
      <path class="st11" d="M262.45,118.88c-.92.58-1.74,1.14-2.43,1.65l-4.6,3.44c0,.77.02,1.54,0,2.31-1,74.44-80.82,119.67-146.27,85.35,17.4,11.88,39.3,17.38,60.44,15.9,52.11-3.16,94.09-48.99,93.17-101.23,0-2.49-.11-4.96-.31-7.42Z"/>
    </g>
    <path class="st36" d="M243.99,76.41c2.42,4.34,4.52,8.88,6.29,13.56-69.64-6.53-186.77,37.57-191.49,79.31-.67,5.88-.41,10.84.51,15.05.8-1.69,1.68-3.57,2.62-5.06,5.23-9.18,12.76-16.98,20.57-24,1.82-1.5,5.27-4.35,7.07-5.83,1.91-1.4,5.48-4.02,7.38-5.41,1.59-1.23,9.12-6.02,10.87-7.21-3,2.25-9.72,7.09-12.42,9.48-.82.66-4.29,3.56-5,4.14-.57.53-2.25,2.09-2.85,2.65-8.19,7.44-15.79,16.01-21.25,25.66-2,3.75-3.81,7.76-4.87,11.93,1.61,3.43,3.75,6.17,6.19,8.33,3.59-16.06,15.16-30.32,27.26-40.78,25.36-21.53,57.11-33.56,88.6-42.84-30.74,10.52-61.68,23.73-85.75,46-11.64,11.06-22.36,25.38-24.28,41.57,10.22,5.22,21.89,4.09,21.89,4.09,0,0-24.64-15.11,26.3-55.91,50.94-40.8,129.92-48.98,129.92-48.98l2.43-.13c1.05,4.39,1.82,8.89,2.28,13.46,5.28-3.94,25.22-11.57,33.68-28.73,0,0-18.48,0-45.95-10.34Z"/>
  </g>
</svg>